<?xml version="1.0" standalone="no"?><!DOCTYPE svg PUBLIC "-//W3C//DTD SVG 1.1//EN" "http://www.w3.org/Graphics/SVG/1.1/DTD/svg11.dtd"><svg width="100%" height="100%" viewBox="0 0 313 281" version="1.1" xmlns="http://www.w3.org/2000/svg" xmlns:xlink="http://www.w3.org/1999/xlink" xml:space="preserve" style="fill-rule:evenodd;clip-rule:evenodd;stroke-linejoin:round;stroke-miterlimit:1.41421;"><path d="M56.961,280.3c-34.939,-29.393 -56.961,-72.221 -56.961,-119.874c0,-88.541 76.03,-160.426 169.678,-160.426c60.073,0 112.897,29.581 143.052,74.164l-55.039,39.795c-23.62,-34.217 -63.104,-56.658 -107.788,-56.658c-72.236,0 -130.883,58.647 -130.883,130.883c0,35.908 14.492,68.459 37.941,92.116Z" style="fill:#000;"/><path d="M162.389,193.653c-1.065,1.886 -2.377,3.707 -3.935,5.407c-8.877,9.688 -22.364,11.798 -30.1,4.709c-7.737,-7.088 -6.81,-20.708 2.066,-30.396c1.64,-1.789 3.437,-3.32 5.326,-4.582l126.373,-110.976l-99.73,135.838Z" style="fill:#e61a1a;"/></svg>